# Blender 3.5.1
# www.blender.org
mtllib untitled.mtl
o Cube
v 1.000000 0.036094 -1.000000
v 0.932025 -0.036094 -0.932025
v 1.000000 0.036094 1.000000
v 0.932025 -0.036094 0.932025
v -1.000000 0.036094 -1.000000
v -0.932025 -0.036094 -0.932025
v -1.000000 0.036094 1.000000
v -0.932025 -0.036094 0.932025
v 1.000000 0.036094 -1.000000
v 1.000000 0.036094 1.000000
v -1.000000 0.036094 -1.000000
v -1.000000 0.036094 1.000000
v -1.000000 -0.036094 -1.000000
v -1.000000 -0.036094 1.000000
v 1.000000 -0.036094 -1.000000
v 0.930992 0.036094 -0.930992
v -0.930992 0.036094 0.930992
v 0.930992 0.036094 0.930992
v 1.000000 -0.036094 1.000000
v -0.930992 0.036094 -0.930992
v 1.000000 0.036094 1.000000
v -1.000000 0.036094 1.000000
v 1.000000 0.036094 -1.000000
v -1.000000 0.036094 -1.000000
v -1.000000 -0.036094 -1.000000
v -1.000000 -0.036094 1.000000
v 1.000000 -0.036094 -1.000000
v 1.000000 -0.036094 1.000000
vn -0.0000 1.0000 -0.0000
vn -0.0000 -0.0000 1.0000
vn -1.0000 -0.0000 -0.0000
vn 1.0000 -0.0000 -0.0000
vn -0.0000 -0.0000 -1.0000
vn -0.0000 -1.0000 -0.0000
vn -0.0000 -0.0143 0.9999
vn 0.9999 -0.0143 -0.0000
vn -0.9999 -0.0143 -0.0000
vn -0.0000 -0.0143 -0.9999
vt 0.366503 0.508497
vt 0.366503 0.741503
vt 0.133497 0.508497
vt 0.133497 0.741503
vt 0.125000 0.500000
vt 0.375000 0.250000
vt 0.125000 0.750000
vt 0.375000 1.000000
vt 0.375000 0.000000
vt 0.375000 0.500000
vt 0.633626 0.508626
vt 0.866374 0.741374
vt 0.633626 0.741374
vt 0.375000 0.750000
vt 0.866374 0.508626
vt 0.625000 0.750000
vt 0.625000 1.000000
vt 0.625000 0.000000
vt 0.875000 0.750000
vt 0.625000 0.500000
vt 0.625000 0.250000
vt 0.875000 0.500000
vt 0.125000 0.500000
vt 0.125000 0.750000
vt 0.375000 0.500000
vt 0.375000 0.750000
s 0
usemtl Material
f 28/26/1 27/25/1 15/10/1 19/14/1
f 25/23/1 26/24/1 14/7/1 13/5/1
f 26/24/1 28/26/1 19/14/1 14/7/1
f 27/25/1 25/23/1 13/5/1 15/10/1
f 19/14/2 21/16/2 22/17/2 14/8/2
f 14/9/3 22/18/3 24/21/3 13/6/3
f 15/10/4 23/20/4 21/16/4 19/14/4
f 13/6/5 24/21/5 23/20/5 15/10/5
f 18/13/1 17/12/1 22/19/1 21/16/1
f 16/11/1 18/13/1 21/16/1 23/20/1
f 17/12/1 20/15/1 24/22/1 22/19/1
f 20/15/1 16/11/1 23/20/1 24/22/1
f 6/3/6 8/4/6 26/24/6 25/23/6
f 2/1/6 6/3/6 25/23/6 27/25/6
f 8/4/6 4/2/6 28/26/6 26/24/6
f 4/2/6 2/1/6 27/25/6 28/26/6
f 20/15/7 6/3/7 2/1/7 16/11/7
f 17/12/8 8/4/8 6/3/8 20/15/8
f 16/11/9 2/1/9 4/2/9 18/13/9
f 18/13/10 4/2/10 8/4/10 17/12/10
l 1 9
l 3 10
l 5 11
l 7 12
